<?xml version="1.0" encoding="utf-8"?>
<!-- Generator: Adobe Illustrator 16.0.0, SVG Export Plug-In . SVG Version: 6.00 Build 0)  -->
<!DOCTYPE svg PUBLIC "-//W3C//DTD SVG 1.1//EN" "http://www.w3.org/Graphics/SVG/1.1/DTD/svg11.dtd">
<svg version="1.1" id="Layer_1" xmlns="http://www.w3.org/2000/svg" xmlns:xlink="http://www.w3.org/1999/xlink" x="0px" y="0px"
	 width="381px" height="98px" viewBox="0 0 381 98" enable-background="new 0 0 381 98" xml:space="preserve">
<path fill="#106CA0" d="M12.154,8.026l6.375,1.717l-6.375,1.716l-1.717,6.376L8.72,11.459L2.345,9.743L8.72,8.026l1.717-6.375
	L12.154,8.026z M86.861,39.81c-5.807,13.676-11.24,20.794-11.615,32.971s-2.996,25.478-6.369,25.852
	c-3.15,0.351-4.121-24.417-16.861-24.417c-12.742,0-13.713,24.768-16.863,24.417c-3.371-0.374-5.994-13.675-6.369-25.852
	c-0.264-8.604-3.059-14.69-6.721-22.341c42.984,11.425,51.127-11.147,51.127-11.147c-4.643,9.952-21.25,15.015-39.4,11.433
	c-19.963-3.94-34.23-16.844-31.865-28.822c0.648-3.293,2.494-6.171,5.236-8.535c-0.463,0.993-0.813,2.034-1.027,3.121
	C4.82,23.15,8.65,30.093,15.738,35.625c-3.248-12.28,1.938-23.934,11.359-24.103c9.762-0.174,13.488,8.311,24.918,8.311
	s15.156-8.485,24.918-8.311C87.423,11.71,92.667,26.135,86.861,39.81z M28.148,28.413l-4.158-1.119l-1.119-4.156l-1.119,4.156
	l-4.156,1.119l4.156,1.119l1.119,4.157l1.119-4.157L28.148,28.413z M42.585,34.448l-2.961-0.796l-0.797-2.96l-0.797,2.96
	l-2.959,0.796l2.959,0.797l0.797,2.96l0.797-2.96L42.585,34.448z"/>
<path fill="#4A4A4A" d="M109.267,10.944h18.537c4.293,0,8.1,0.803,11.424,2.408c3.322,1.605,5.898,3.883,7.729,6.832
	c1.828,2.95,2.742,6.403,2.742,10.36c0,3.958-0.914,7.411-2.742,10.36c-1.83,2.949-4.406,5.227-7.729,6.832
	c-3.324,1.605-7.131,2.408-11.424,2.408h-18.537V10.944z M127.355,41.296c3.361,0,6.057-0.952,8.092-2.856s3.053-4.536,3.053-7.896
	s-1.018-5.992-3.053-7.896c-2.035-1.904-4.73-2.856-8.092-2.856h-7v21.504H127.355z"/>
<path fill="#4A4A4A" d="M169.384,20.324c1.734-0.69,3.723-1.036,5.963-1.036v9.576c-0.971-0.112-1.773-0.168-2.408-0.168
	c-2.277,0-4.059,0.616-5.348,1.848c-1.287,1.232-1.932,3.118-1.932,5.656v13.944h-10.641V19.792h10.137v3.64
	C166.238,22.051,167.648,21.015,169.384,20.324z"/>
<path fill="#4A4A4A" d="M179.21,48.855c-1.232-1.193-1.848-2.705-1.848-4.535c0-1.867,0.605-3.379,1.82-4.536
	c1.213-1.157,2.734-1.736,4.564-1.736c1.865,0,3.396,0.58,4.592,1.736c1.193,1.157,1.791,2.669,1.791,4.536
	c0,1.83-0.607,3.342-1.82,4.535c-1.213,1.195-2.734,1.793-4.563,1.793C181.955,50.648,180.443,50.051,179.21,48.855z"/>
<path fill="#4A4A4A" d="M220.257,19.736h-12.041v-8.792h35.114v8.792h-11.985v30.409h-11.088V19.736z"/>
<path fill="#4A4A4A" d="M274.746,37.656h-22.064c0.449,1.568,1.316,2.771,2.604,3.611c1.289,0.84,2.904,1.26,4.846,1.26
	c1.455,0,2.715-0.204,3.779-0.615c1.064-0.41,2.137-1.082,3.221-2.016l5.6,5.825c-2.949,3.285-7.262,4.928-12.936,4.928
	c-3.549,0-6.664-0.672-9.354-2.017c-2.688-1.344-4.77-3.21-6.244-5.6s-2.211-5.096-2.211-8.12c0-2.986,0.719-5.665,2.156-8.036
	c1.436-2.37,3.424-4.228,5.963-5.572c2.539-1.344,5.395-2.016,8.568-2.016c3.023,0,5.768,0.625,8.232,1.876
	c2.465,1.251,4.414,3.062,5.852,5.432c1.438,2.371,2.156,5.18,2.156,8.428C274.914,35.099,274.857,35.976,274.746,37.656z
	 M254.613,28.248c-1.102,0.934-1.801,2.203-2.1,3.808h12.432c-0.299-1.605-0.998-2.875-2.1-3.808c-1.102-0.933-2.473-1.4-4.115-1.4
	C257.086,26.848,255.715,27.315,254.613,28.248z"/>
<path fill="#4A4A4A" d="M310.699,37.656h-22.064c0.447,1.568,1.316,2.771,2.604,3.611s2.902,1.26,4.844,1.26
	c1.457,0,2.717-0.204,3.779-0.615c1.064-0.41,2.137-1.082,3.221-2.016l5.6,5.825c-2.949,3.285-7.262,4.928-12.936,4.928
	c-3.547,0-6.664-0.672-9.352-2.017c-2.688-1.344-4.77-3.21-6.244-5.6s-2.213-5.096-2.213-8.12c0-2.986,0.719-5.665,2.156-8.036
	c1.438-2.37,3.426-4.228,5.965-5.572c2.537-1.344,5.395-2.016,8.568-2.016c3.023,0,5.768,0.625,8.23,1.876
	c2.465,1.251,4.416,3.062,5.854,5.432c1.436,2.371,2.156,5.18,2.156,8.428C310.867,35.099,310.811,35.976,310.699,37.656z
	 M290.566,28.248c-1.102,0.934-1.803,2.203-2.1,3.808h12.432c-0.299-1.605-1-2.875-2.1-3.808c-1.102-0.933-2.475-1.4-4.117-1.4
	S291.668,27.315,290.566,28.248z"/>
<path fill="#4A4A4A" d="M336.738,48.912c-0.896,0.561-1.988,0.99-3.277,1.288c-1.287,0.298-2.66,0.448-4.115,0.448
	c-3.957,0-7-0.971-9.129-2.912c-2.127-1.941-3.191-4.834-3.191-8.68V28.864h-4.424v-7.952h4.424v-7.896h10.641v7.896h6.943v7.952
	h-6.943v10.08c0,1.083,0.289,1.932,0.867,2.548c0.578,0.615,1.354,0.924,2.324,0.924c1.232,0,2.314-0.316,3.248-0.952
	L336.738,48.912z"/>
<path fill="#4A4A4A" d="M369.693,22.648c2.297,2.24,3.443,5.619,3.443,10.136v17.36h-10.639V34.52c0-4.144-1.662-6.216-4.984-6.216
	c-1.83,0-3.295,0.598-4.396,1.792c-1.102,1.195-1.652,2.987-1.652,5.376v14.672h-10.639V8.592h10.639v14
	c1.158-1.083,2.521-1.904,4.088-2.464c1.568-0.56,3.248-0.84,5.041-0.84C364.363,19.288,367.398,20.408,369.693,22.648z"/>
<g>
	<path fill="#4A4A4A" d="M109.267,66.145h13.24c3.066,0,5.785,0.573,8.16,1.72c2.373,1.146,4.213,2.773,5.52,4.88
		c1.307,2.107,1.959,4.574,1.959,7.4s-0.652,5.293-1.959,7.399s-3.146,3.733-5.52,4.88c-2.375,1.146-5.094,1.721-8.16,1.721h-13.24
		V66.145z M122.187,87.824c2.4,0,4.326-0.68,5.779-2.04s2.18-3.24,2.18-5.64c0-2.4-0.727-4.28-2.18-5.641
		c-1.453-1.359-3.379-2.04-5.779-2.04h-5v15.36H122.187z"/>
	<path fill="#4A4A4A" d="M163.986,85.225h-15.76c0.32,1.119,0.939,1.979,1.859,2.58c0.92,0.6,2.074,0.899,3.461,0.899
		c1.039,0,1.939-0.146,2.699-0.44c0.76-0.293,1.527-0.773,2.301-1.439l4,4.16c-2.107,2.347-5.188,3.52-9.24,3.52
		c-2.533,0-4.76-0.48-6.68-1.439c-1.92-0.961-3.408-2.293-4.461-4s-1.58-3.641-1.58-5.801c0-2.133,0.514-4.046,1.541-5.74
		c1.025-1.692,2.445-3.02,4.26-3.979c1.813-0.96,3.854-1.44,6.119-1.44c2.16,0,4.121,0.447,5.881,1.34
		c1.76,0.895,3.152,2.188,4.18,3.881s1.541,3.699,1.541,6.02C164.107,83.398,164.066,84.023,163.986,85.225z M149.607,78.504
		c-0.787,0.667-1.287,1.574-1.5,2.721h8.879c-0.213-1.146-0.713-2.054-1.5-2.721c-0.787-0.666-1.768-1-2.939-1
		C151.373,77.504,150.392,77.838,149.607,78.504z"/>
	<path fill="#4A4A4A" d="M188.246,74.504c1.641,1.6,2.461,4.014,2.461,7.24v12.4h-7.6v-11.16c0-2.961-1.188-4.44-3.561-4.44
		c-1.307,0-2.354,0.427-3.141,1.28s-1.18,2.134-1.18,3.84v10.48h-7.6V72.464h7.24v2.36c0.854-0.881,1.865-1.553,3.039-2.02
		s2.453-0.701,3.84-0.701C184.439,72.104,186.607,72.904,188.246,74.504z"/>
	<path fill="#4A4A4A" d="M210.427,93.264c-0.641,0.4-1.42,0.707-2.342,0.92c-0.92,0.213-1.898,0.32-2.939,0.32
		c-2.826,0-5-0.693-6.52-2.08s-2.279-3.453-2.279-6.199v-7.281h-3.16v-5.68h3.16v-5.64h7.6v5.64h4.959v5.68h-4.959v7.201
		c0,0.773,0.205,1.379,0.619,1.819s0.967,0.66,1.66,0.66c0.881,0,1.654-0.226,2.32-0.681L210.427,93.264z"/>
	<path fill="#4A4A4A" d="M230.826,74.564c1.895,1.64,2.84,4.153,2.84,7.539v12.041h-7.08v-2.801c-1.094,2.107-3.227,3.16-6.398,3.16
		c-1.682,0-3.135-0.293-4.361-0.88s-2.152-1.38-2.779-2.38s-0.939-2.141-0.939-3.42c0-2.053,0.785-3.646,2.359-4.78
		c1.572-1.133,4-1.7,7.279-1.7h4.32c-0.133-2.293-1.666-3.439-4.6-3.439c-1.041,0-2.094,0.166-3.16,0.5s-1.975,0.793-2.721,1.38
		l-2.559-5.16c1.199-0.8,2.66-1.42,4.379-1.86c1.721-0.439,3.447-0.66,5.18-0.66C226.187,72.104,228.933,72.924,230.826,74.564z
		 M224.626,89.064c0.666-0.427,1.146-1.054,1.439-1.881v-1.879h-3.279c-2.215,0-3.32,0.732-3.32,2.199c0,0.667,0.254,1.2,0.76,1.6
		c0.506,0.4,1.199,0.601,2.08,0.601S223.958,89.49,224.626,89.064z"/>
	<path fill="#4A4A4A" d="M238.466,64.464h7.6v29.681h-7.6V64.464z"/>
	<path fill="#4A4A4A" d="M269.045,92.844c-2.334-1.24-4.166-2.966-5.5-5.18c-1.334-2.213-2-4.721-2-7.52
		c0-2.801,0.666-5.307,2-7.521c1.334-2.213,3.166-3.94,5.5-5.181c2.334-1.239,4.967-1.859,7.9-1.859c2.561,0,4.865,0.453,6.92,1.359
		c2.053,0.908,3.76,2.215,5.119,3.921l-5.039,4.56c-1.814-2.186-4.014-3.279-6.6-3.279c-1.521,0-2.875,0.334-4.061,1
		c-1.188,0.666-2.107,1.606-2.76,2.819c-0.654,1.214-0.98,2.606-0.98,4.181c0,1.573,0.326,2.967,0.98,4.18
		c0.652,1.213,1.572,2.154,2.76,2.82c1.186,0.666,2.539,1,4.061,1c2.586,0,4.785-1.094,6.6-3.28l5.039,4.56
		c-1.359,1.707-3.066,3.014-5.119,3.92c-2.055,0.906-4.359,1.36-6.92,1.36C274.012,94.704,271.379,94.084,269.045,92.844z"/>
	<path fill="#4A4A4A" d="M292.145,64.464h7.6v29.681h-7.6V64.464z"/>
	<path fill="#4A4A4A" d="M305.104,68.904c-0.854-0.773-1.279-1.733-1.279-2.881c0-1.146,0.426-2.105,1.279-2.879
		s1.975-1.16,3.361-1.16c1.385,0,2.506,0.367,3.359,1.1c0.854,0.734,1.279,1.674,1.279,2.82c0,1.199-0.426,2.193-1.279,2.98
		c-0.854,0.786-1.975,1.18-3.359,1.18C307.078,70.064,305.957,69.678,305.104,68.904z M304.664,72.464h7.6v21.681h-7.6V72.464z"/>
	<path fill="#4A4A4A" d="M337.803,74.504c1.641,1.6,2.461,4.014,2.461,7.24v12.4h-7.6v-11.16c0-2.961-1.188-4.44-3.561-4.44
		c-1.307,0-2.354,0.427-3.141,1.28c-0.785,0.854-1.18,2.134-1.18,3.84v10.48h-7.6V72.464h7.24v2.36
		c0.854-0.881,1.865-1.553,3.039-2.02s2.453-0.701,3.84-0.701C333.996,72.104,336.164,72.904,337.803,74.504z"/>
	<path fill="#4A4A4A" d="M345.463,68.904c-0.854-0.773-1.279-1.733-1.279-2.881c0-1.146,0.426-2.105,1.279-2.879
		s1.975-1.16,3.361-1.16c1.385,0,2.506,0.367,3.359,1.1c0.854,0.734,1.279,1.674,1.279,2.82c0,1.199-0.426,2.193-1.279,2.98
		c-0.854,0.786-1.975,1.18-3.359,1.18C347.438,70.064,346.316,69.678,345.463,68.904z M345.023,72.464h7.6v21.681h-7.6V72.464z"/>
	<path fill="#4A4A4A" d="M362.184,93.064c-1.895-0.961-3.367-2.293-4.42-4c-1.055-1.707-1.58-3.641-1.58-5.801
		s0.525-4.086,1.58-5.779c1.053-1.693,2.525-3.014,4.42-3.961c1.893-0.945,4.039-1.42,6.439-1.42c2.453,0,4.572,0.527,6.359,1.58
		c1.787,1.055,3.055,2.514,3.801,4.381l-5.881,3c-0.986-1.947-2.426-2.92-4.318-2.92c-1.361,0-2.488,0.453-3.381,1.359
		c-0.895,0.907-1.34,2.16-1.34,3.76c0,1.627,0.445,2.9,1.34,3.82c0.893,0.92,2.02,1.38,3.381,1.38c1.893,0,3.332-0.974,4.318-2.92
		l5.881,3c-0.746,1.867-2.014,3.327-3.801,4.38c-1.787,1.055-3.906,1.58-6.359,1.58C366.223,94.504,364.076,94.023,362.184,93.064z"
		/>
</g>
</svg>
