<svg width="80" height="81" viewBox="0 0 80 81" fill="none" xmlns="http://www.w3.org/2000/svg">
<path d="M55.9566 12.5783L48.228 7.7002L40.0008 2.9502L7.0918 21.9502V59.9502L40.0008 78.9502L72.9097 59.9502V21.9502L64.6825 17.2002L60.5689 14.8252" stroke="#051229" stroke-width="0.997241"/>
<path d="M29.9767 66.0692L33.319 67.9975L40.0037 71.854L66.7422 56.4279V25.5758L40.0037 10.1497L13.2651 25.5758V56.4279L19.9498 60.2844L25.5437 63.4383" stroke="#051229" stroke-width="0.997241"/>
<path d="M34.7428 37.9143L40.0018 34.878L45.2607 37.9143V43.9868L40.0018 47.023L34.7428 43.9868V37.9143Z" stroke="#051229" stroke-width="0.997241"/>
<path d="M40.0009 38.4575L42.16 39.7041V42.1972L40.0009 43.4437L37.8418 42.1972V39.7041L40.0009 38.4575Z" fill="#051229"/>
<line x1="39.5053" y1="35.1326" x2="39.5053" y2="21.005" stroke="#051229" stroke-width="0.997241"/>
<line x1="45.8203" y1="40.4516" x2="59.9479" y2="40.4516" stroke="#051229" stroke-width="0.997241"/>
<line x1="20.0527" y1="40.4516" x2="34.1803" y2="40.4516" stroke="#051229" stroke-width="0.997241"/>
<line x1="40.3295" y1="60.895" x2="40.3295" y2="46.7674" stroke="#051229" stroke-width="0.997241"/>
</svg>
